<svg xmlns="http://www.w3.org/2000/svg" xmlns:xlink="http://www.w3.org/1999/xlink" width="500" zoomAndPan="magnify" viewBox="0 0 375 374.999991" height="500" preserveAspectRatio="xMidYMid meet" version="1.0"><defs><g/></defs><rect x="-37.5" width="450" fill="#ffffff" y="-37.499999" height="449.999989" fill-opacity="1"/><rect x="-37.5" width="450" fill="#ffffff" y="-37.499999" height="449.999989" fill-opacity="1"/><rect x="-37.5" width="450" fill="#ff6947" y="-37.499999" height="449.999989" fill-opacity="1"/><g fill="#ffffff" fill-opacity="1"><g transform="translate(17.055725, 133.874991)"><g><path d="M 63.984375 0 L 59.625 -16.625 L 30.8125 -16.625 L 26.328125 0 L 0 0 L 28.9375 -89.046875 L 60.890625 -89.046875 L 90.1875 0 Z M 54.65625 -36.265625 L 50.828125 -50.828125 C 49.941406 -54.066406 48.859375 -58.253906 47.578125 -63.390625 C 46.304688 -68.523438 45.46875 -72.203125 45.0625 -74.421875 C 44.695312 -72.359375 43.976562 -68.960938 42.90625 -64.234375 C 41.84375 -59.503906 39.46875 -50.179688 35.78125 -36.265625 Z M 54.65625 -36.265625 "/></g></g></g><g fill="#ffffff" fill-opacity="1"><g transform="translate(103.769457, 133.874991)"><g><path d="M 94.015625 0 L 62.59375 0 L 30.203125 -62.46875 L 29.65625 -62.46875 C 30.425781 -52.644531 30.8125 -45.144531 30.8125 -39.96875 L 30.8125 0 L 9.578125 0 L 9.578125 -88.671875 L 40.875 -88.671875 L 73.140625 -27.046875 L 73.515625 -27.046875 C 72.941406 -35.984375 72.65625 -43.160156 72.65625 -48.578125 L 72.65625 -88.671875 L 94.015625 -88.671875 Z M 94.015625 0 "/></g></g></g><g fill="#ffffff" fill-opacity="1"><g transform="translate(203.887652, 133.874991)"><g><path d="M 9.578125 0 L 9.578125 -88.671875 L 33.65625 -88.671875 L 33.65625 0 Z M 9.578125 0 "/></g></g></g><g fill="#ffffff" fill-opacity="1"><g transform="translate(17.055725, 235.124985)"><g><path d="M 48.21875 0 L 30.078125 -63.875 L 29.53125 -63.875 C 30.382812 -52.988281 30.8125 -44.535156 30.8125 -38.515625 L 30.8125 0 L 9.578125 0 L 9.578125 -88.671875 L 41.484375 -88.671875 L 59.984375 -25.71875 L 60.46875 -25.71875 L 78.609375 -88.671875 L 110.578125 -88.671875 L 110.578125 0 L 88.546875 0 L 88.546875 -38.875 C 88.546875 -40.894531 88.578125 -43.140625 88.640625 -45.609375 C 88.703125 -48.078125 88.976562 -54.125 89.46875 -63.75 L 88.921875 -63.75 L 71.03125 0 Z M 48.21875 0 "/></g></g></g><g fill="#ffffff" fill-opacity="1"><g transform="translate(133.671722, 235.124985)"><g><path d="M 62.234375 0 L 9.578125 0 L 9.578125 -88.671875 L 62.234375 -88.671875 L 62.234375 -69.453125 L 33.546875 -69.453125 L 33.546875 -55.5 L 60.109375 -55.5 L 60.109375 -36.265625 L 33.546875 -36.265625 L 33.546875 -19.53125 L 62.234375 -19.53125 Z M 62.234375 0 "/></g></g></g><g fill="#ffffff" fill-opacity="1"><g transform="translate(198.368167, 235.124985)"><g><path d="M 67.5625 -26.9375 C 67.5625 -21.4375 66.164062 -16.550781 63.375 -12.28125 C 60.59375 -8.019531 56.570312 -4.703125 51.3125 -2.328125 C 46.050781 0.0351562 39.882812 1.21875 32.8125 1.21875 C 26.90625 1.21875 21.953125 0.800781 17.953125 -0.03125 C 13.953125 -0.863281 9.785156 -2.304688 5.453125 -4.359375 L 5.453125 -25.71875 C 10.023438 -23.375 14.773438 -21.539062 19.703125 -20.21875 C 24.640625 -18.90625 29.171875 -18.25 33.296875 -18.25 C 36.859375 -18.25 39.46875 -18.863281 41.125 -20.09375 C 42.78125 -21.332031 43.609375 -22.925781 43.609375 -24.875 C 43.609375 -26.082031 43.273438 -27.140625 42.609375 -28.046875 C 41.941406 -28.960938 40.867188 -29.882812 39.390625 -30.8125 C 37.921875 -31.738281 33.988281 -33.640625 27.59375 -36.515625 C 21.8125 -39.140625 17.472656 -41.6875 14.578125 -44.15625 C 11.691406 -46.625 9.550781 -49.453125 8.15625 -52.640625 C 6.757812 -55.835938 6.0625 -59.617188 6.0625 -63.984375 C 6.0625 -72.148438 9.03125 -78.519531 14.96875 -83.09375 C 20.914062 -87.664062 29.085938 -89.953125 39.484375 -89.953125 C 48.660156 -89.953125 58.019531 -87.828125 67.5625 -83.578125 L 60.234375 -65.078125 C 51.941406 -68.878906 44.78125 -70.78125 38.75 -70.78125 C 35.644531 -70.78125 33.382812 -70.234375 31.96875 -69.140625 C 30.550781 -68.046875 29.84375 -66.691406 29.84375 -65.078125 C 29.84375 -63.335938 30.738281 -61.78125 32.53125 -60.40625 C 34.332031 -59.03125 39.21875 -56.523438 47.1875 -52.890625 C 54.832031 -49.453125 60.140625 -45.757812 63.109375 -41.8125 C 66.078125 -37.875 67.5625 -32.914062 67.5625 -26.9375 Z M 67.5625 -26.9375 "/></g></g></g><g fill="#ffffff" fill-opacity="1"><g transform="translate(266.582526, 235.124985)"><g><path d="M 48.703125 0 L 24.75 0 L 24.75 -69.078125 L 3.09375 -69.078125 L 3.09375 -88.671875 L 70.296875 -88.671875 L 70.296875 -69.078125 L 48.703125 -69.078125 Z M 48.703125 0 "/></g></g></g><g fill="#ffffff" fill-opacity="1"><g transform="translate(17.055725, 336.374978)"><g><path d="M 9.578125 0 L 9.578125 -88.671875 L 33.65625 -88.671875 L 33.65625 0 Z M 9.578125 0 "/></g></g></g><g fill="#ffffff" fill-opacity="1"><g transform="translate(56.823506, 336.374978)"><g><path d="M 49.0625 -70.296875 C 43.363281 -70.296875 38.914062 -67.957031 35.71875 -63.28125 C 32.53125 -58.613281 30.9375 -52.175781 30.9375 -43.96875 C 30.9375 -26.90625 37.425781 -18.375 50.40625 -18.375 C 54.320312 -18.375 58.117188 -18.921875 61.796875 -20.015625 C 65.484375 -21.109375 69.1875 -22.421875 72.90625 -23.953125 L 72.90625 -3.703125 C 65.507812 -0.421875 57.140625 1.21875 47.796875 1.21875 C 34.410156 1.21875 24.148438 -2.660156 17.015625 -10.421875 C 9.878906 -18.191406 6.3125 -29.414062 6.3125 -44.09375 C 6.3125 -53.269531 8.039062 -61.335938 11.5 -68.296875 C 14.957031 -75.253906 19.929688 -80.601562 26.421875 -84.34375 C 32.910156 -88.082031 40.539062 -89.953125 49.3125 -89.953125 C 58.894531 -89.953125 68.050781 -87.867188 76.78125 -83.703125 L 69.453125 -64.84375 C 66.171875 -66.375 62.890625 -67.664062 59.609375 -68.71875 C 56.335938 -69.769531 52.820312 -70.296875 49.0625 -70.296875 Z M 49.0625 -70.296875 "/></g></g></g></svg>